<svg xmlns="http://www.w3.org/2000/svg" viewBox="0 0 100 100">
  <defs>
    <linearGradient id="grad" x1="0%" y1="0%" x2="100%" y2="100%">
      <stop offset="0%" style="stop-color:#4F46E5;stop-opacity:1" />
      <stop offset="100%" style="stop-color:#0EA5E9;stop-opacity:1" />
    </linearGradient>
  </defs>
  <!-- 背景圆形 -->
  <circle cx="50" cy="50" r="48" fill="url(#grad)" />
  
  <!-- 主图标 - ClioSoft SOS标志 -->
  <g transform="translate(25, 25) scale(0.5)">
    <!-- 左侧S -->
    <path d="M50,15 C50,15 60,15 65,25 C70,35 65,45 65,45 C65,45 75,45 80,55 C85,65 80,75 80,75 C80,75 70,75 65,85 C60,95 50,95 50,95 C50,95 40,95 35,85 C30,75 35,65 35,65 C35,65 25,65 20,55 C15,45 20,35 20,35 C20,35 30,35 35,25 C40,15 50,15 50,15 Z" fill="white" />
    
    <!-- 中间O -->
    <path d="M140,50 C140,30 120,10 100,10 C80,10 60,30 60,50 C60,70 80,90 100,90 C120,90 140,70 140,50 Z" fill="none" stroke="white" stroke-width="15" stroke-linecap="round" stroke-linejoin="round" />
    
    <!-- 右侧S -->
    <path d="M230,15 C230,15 240,15 245,25 C250,35 245,45 245,45 C245,45 255,45 260,55 C265,65 260,75 260,75 C260,75 250,75 245,85 C240,95 230,95 230,95 C230,95 220,95 215,85 C210,75 215,65 215,65 C215,65 205,65 200,55 C195,45 200,35 200,35 C200,35 210,35 215,25 C220,15 230,15 230,15 Z" fill="white" />
  </g>
  
  <!-- 装饰元素 -->
  <circle cx="50" cy="50" r="30" fill="none" stroke="white" stroke-width="2" stroke-dasharray="5,5" opacity="0.3" />
  <circle cx="50" cy="50" r="40" fill="none" stroke="white" stroke-width="1" opacity="0.2" />
</svg>